HIERARCHY
ROOT Bip001_Pelvis
{
  OFFSET 32.8599 95.8771 -27.9544
  CHANNELS 6 Xposition Yposition Zposition Zrotation Xrotation Yrotation
  JOINT Bip001_Spine
  {
    OFFSET 1.4188e-005 10.2191 -0.0116013
    CHANNELS 3 Zrotation Xrotation Yrotation
    JOINT Bip001_L_Thigh
    {
      OFFSET 11.0458 -10.2191 0.0116197
      CHANNELS 3 Zrotation Xrotation Yrotation
      JOINT Bip001_L_Calf
      {
        OFFSET -0.707118 -44.0221 0.360014
        CHANNELS 3 Zrotation Xrotation Yrotation
        JOINT Bip001_L_Foot
        {
          OFFSET -0.651902 -40.5938 -3.56146
          CHANNELS 3 Zrotation Xrotation Yrotation
          JOINT Bip001_L_Toe0
          {
            OFFSET 0.0530839 -10.2181 13.1504
            CHANNELS 3 Zrotation Xrotation Yrotation
            End Site
            {
              OFFSET -1.02532e-005 0 7.55606
            }
          }
        }
      }
    }
    JOINT Bip001_R_Thigh
    {
      OFFSET -11.0458 -10.2191 0.0115893
      CHANNELS 3 Zrotation Xrotation Yrotation
      JOINT Bip001_R_Calf
      {
        OFFSET 0.706994 -44.0221 0.35984
        CHANNELS 3 Zrotation Xrotation Yrotation
        JOINT Bip001_R_Foot
        {
          OFFSET 0.651787 -40.5938 -3.5613
          CHANNELS 3 Zrotation Xrotation Yrotation
          JOINT Bip001_R_Toe0
          {
            OFFSET -0.0531479 -10.2181 13.1504
            CHANNELS 3 Zrotation Xrotation Yrotation
            End Site
            {
              OFFSET -1.02894e-005 0 7.55606
            }
          }
        }
      }
    }
    JOINT Bip001_Spine1
    {
      OFFSET 1.87041e-005 14.5736 1.08638
      CHANNELS 3 Zrotation Xrotation Yrotation
      JOINT Bip001_Spine2
      {
        OFFSET 2.24614e-005 14.5058 -1.69078
        CHANNELS 3 Zrotation Xrotation Yrotation
        JOINT Bip001_Neck
        {
          OFFSET 2.20278e-005 15.3945 -0.489414
          CHANNELS 3 Zrotation Xrotation Yrotation
          JOINT Bip001_L_Clavicle
          {
            OFFSET 6.06036 -0.000579998 0.00836775
            CHANNELS 3 Zrotation Xrotation Yrotation
            JOINT Bip001_L_UpperArm
            {
              OFFSET 11.5509 -0.0600302 0.00193952
              CHANNELS 3 Zrotation Xrotation Yrotation
              JOINT Bip001_L_Forearm
              {
                OFFSET 25.9523 0.0806089 -2.15551
                CHANNELS 3 Zrotation Xrotation Yrotation
                JOINT Bip001_L_Hand
                {
                  OFFSET 32.2475 0.153767 1.63968
                  CHANNELS 3 Zrotation Xrotation Yrotation
                  JOINT Bip001_L_Finger0
                  {
                    OFFSET 6.04639 -2.20976 5.90322
                    CHANNELS 3 Zrotation Xrotation Yrotation
                    End Site
                    {
                      OFFSET 4.22375 -1.43895 0.606486
                    }
                  }
                  JOINT Bip001_L_Finger1
                  {
                    OFFSET 11.0826 -0.704819 -0.198153
                    CHANNELS 3 Zrotation Xrotation Yrotation
                    End Site
                    {
                      OFFSET 6.20027 -0.397518 -0.0787166
                    }
                  }
                }
              }
            }
          }
          JOINT Bip001_R_Clavicle
          {
            OFFSET -6.06036 -0.000563197 0.00835105
            CHANNELS 3 Zrotation Xrotation Yrotation
            JOINT Bip001_R_UpperArm
            {
              OFFSET -11.5509 -0.0599978 0.00190698
              CHANNELS 3 Zrotation Xrotation Yrotation
              JOINT Bip001_R_Forearm
              {
                OFFSET -25.9523 0.0806819 -2.1559
                CHANNELS 3 Zrotation Xrotation Yrotation
                JOINT Bip001_R_Hand
                {
                  OFFSET -32.2476 0.153857 1.63991
                  CHANNELS 3 Zrotation Xrotation Yrotation
                  JOINT Bip001_R_Finger0
                  {
                    OFFSET -6.04642 -2.20975 5.9032
                    CHANNELS 3 Zrotation Xrotation Yrotation
                    End Site
                    {
                      OFFSET -4.22376 -1.43894 0.606473
                    }
                  }
                  JOINT Bip001_R_Finger1
                  {
                    OFFSET -11.0826 -0.70479 -0.198183
                    CHANNELS 3 Zrotation Xrotation Yrotation
                    End Site
                    {
                      OFFSET -6.20028 -0.397501 -0.0787337
                    }
                  }
                }
              }
            }
          }
          JOINT Bip001_Head
          {
            OFFSET 1.09673e-005 11.2744 2.05948
            CHANNELS 3 Zrotation Xrotation Yrotation
            End Site
            {
              OFFSET 2.89576e-005 20.8808 -2.77728e-005
            }
          }
        }
      }
    }
  }
}
MOTION
Frames:	13
Frame Time:	0.04
32.8599 95.8771 -27.9544 0.21281 -0.729476 0.330899 -0.153665 2.29093 -0.129248 5.00687 -1.93846 8.68711 -0.194972 6.7472 -11.0748 4.35199 -2.74986 -0.103174 -1.65374 -4.66642 2.92816 -3.08851 -2.66286 -0.250342 0.314052 10.2758 0.535022 -5.80899 -9.62454 1.72809 2.13493 -7.23395 2.1935 -0.302556 4.57248 -0.252646 -0.302556 4.57246 -0.252646 3.36179 -7.91685 -3.33265 -27.6478 8.13013 1.34205 -54.7245 41.346 -0.711263 15.1702 6.80082 -19.2374 9.75333 1.59753 -5.95201 -3.18055e-015 -6.36111e-015 3.18055e-015 -3.18055e-015 -6.36111e-015 3.18055e-015 24.7446 14.6795 13.8101 48.3491 34.0358 7.79341 -9.94901 11.8251 6.15384 -4.54729 16.5329 12.3058 3.18055e-015 -4.77083e-015 -3.97569e-016 3.18055e-015 -3.18056e-015 3.97569e-016 -2.07074 -7.35389 -2.13585 
32.8581 95.8821 -27.9611 0.152536 -0.67055 0.39177 -0.121705 2.29093 -0.172297 5.06434 -2.07815 8.61857 -0.219851 6.89649 -11.0214 4.27247 -2.86125 -0.103184 -1.69099 -4.6142 2.96826 -3.04741 -2.70604 -0.184906 0.297607 10.246 0.511602 -5.79208 -9.56258 1.70918 2.13452 -7.22384 2.19332 -0.236859 4.55749 -0.340175 -0.236859 4.55749 -0.340176 3.21148 -7.93199 -3.25667 -27.4599 8.21909 1.19133 -54.8482 41.216 -0.752813 15.2219 7.03822 -19.1684 9.87162 1.51602 -6.0569 -0 0 1.59028e-015 -0 0 1.59028e-015 24.872 14.6113 13.5967 48.1159 34.8439 7.7096 -10.0671 11.3443 6.75459 -5.39904 17.9128 12.7344 1.65521e-032 -7.95139e-016 1.19271e-015 3.18055e-015 -1.59028e-015 7.95139e-016 -2.03347 -7.36806 -2.10385 
32.8813 95.8779 -27.9435 0.175229 -0.664679 0.392589 -0.113164 2.29093 -0.194121 5.00446 -2.00471 8.43408 -0.271519 6.75404 -10.8314 4.54784 -2.64073 -0.119437 -1.56957 -4.81056 2.8758 -3.09026 -2.70707 -0.185092 0.287671 10.2689 0.539622 -5.80232 -9.58404 1.68457 2.13434 -7.22666 2.19104 -0.217922 4.55647 -0.384948 -0.217952 4.55647 -0.38506 2.97111 -8.03195 -3.169 -27.3139 8.35541 1.2 -54.7402 41.127 -0.840973 15.2113 7.11766 -19.1672 9.94297 1.62703 -6.11449 0 0 -0 -3.18055e-015 0 -0 25.1388 14.6681 13.4533 48.3212 35.0258 7.27991 -10.083 11.453 7.26287 -5.16906 17.7921 13.3261 -1.65521e-032 -1.59028e-015 -5.96354e-016 -8.27608e-033 -7.95139e-016 -5.96354e-016 -1.93281 -7.22812 -2.08639 
32.9136 95.8823 -27.9211 0.209935 -0.677174 0.352912 -0.117377 2.29093 -0.186451 4.94962 -1.96372 8.26187 -0.279114 6.72172 -10.5921 4.46936 -2.67458 -0.115713 -1.60531 -4.73041 2.89151 -3.13735 -2.69677 -0.164772 0.290913 10.2778 0.52338 -5.79691 -9.5833 1.71379 2.13443 -7.23774 2.18839 -0.22779 4.5544 -0.368902 -0.227714 4.55439 -0.368797 2.85754 -8.12399 -3.15302 -27.2854 8.45646 1.22831 -54.515 41.061 -0.933926 15.2466 7.37604 -19.1786 9.85528 1.6315 -6.14112 3.18055e-015 -3.18055e-015 -1.59028e-015 -3.18055e-015 -3.18056e-015 -0 25.315 14.7637 13.4094 48.9384 34.8366 6.68374 -9.94899 11.1332 7.40156 -4.63492 17.2024 13.4375 -3.18055e-015 1.59028e-015 -7.95139e-016 -3.18055e-015 2.38542e-015 -0 -1.87622 -6.96173 -2.10555 
32.9589 95.8858 -27.8761 0.312056 -0.742126 0.27223 -0.150779 2.29093 -0.155305 4.81013 -1.72602 8.28241 -0.265143 6.43498 -10.5782 4.64107 -2.44598 -0.132013 -1.52763 -4.84077 2.8142 -3.2377 -2.68697 -0.21366 0.272669 10.42 0.520095 -5.76036 -9.65221 1.78358 2.13551 -7.23465 2.19788 -0.296274 4.56734 -0.305111 -0.296019 4.56735 -0.305014 2.87478 -8.11931 -3.17349 -27.2815 8.44171 1.24373 -54.4253 41.0818 -0.975787 15.2687 7.46099 -19.1824 9.83844 1.64997 -6.11759 -0 -3.18055e-015 -0 -3.18055e-015 -6.36111e-015 -0 25.3492 14.8002 13.4853 49.7801 34.8839 5.72635 -9.96893 10.2354 7.68032 -4.24366 16.4351 13.0024 1.59028e-015 3.18055e-015 1.98785e-015 3.18055e-015 1.59028e-015 1.19271e-015 -1.87646 -6.77556 -2.11741 
32.9953 95.8845 -27.842 0.3759 -0.777466 0.252685 -0.157679 2.29093 -0.141503 4.71278 -1.60481 8.40833 -0.242677 6.30414 -10.7405 4.72575 -2.36375 -0.137621 -1.50996 -4.89493 2.80956 -3.32554 -2.66135 -0.284831 0.265735 10.4933 0.475207 -5.71327 -9.71057 1.91166 2.13742 -7.25451 2.20703 -0.317869 4.57236 -0.276893 -0.317899 4.57237 -0.276902 2.89038 -8.03267 -3.19133 -27.283 8.3558 1.2108 -54.4779 41.1103 -0.952736 15.2977 7.37235 -19.1959 9.82017 1.68244 -6.09752 -3.18055e-015 6.36111e-015 -1.59028e-015 -3.18055e-015 9.54167e-015 -1.59028e-015 25.2863 14.7402 13.5989 50.604 34.9268 4.69014 -9.79768 9.63218 8.08374 -4.16593 15.9437 12.6472 0 0 -7.95139e-016 -1.59028e-015 -3.18056e-015 3.97569e-016 -1.8854 -6.72315 -2.12729 
33.0166 95.8829 -27.8302 0.402335 -0.802686 0.251851 -0.15852 2.29093 -0.11919 4.69363 -1.58397 8.47064 -0.250538 6.3478 -10.813 4.55749 -2.52076 -0.130948 -1.59538 -4.75249 2.89873 -3.36806 -2.65203 -0.361807 0.250149 10.5418 0.491856 -5.70099 -9.75297 1.96933 2.1343 -7.23716 2.18758 -0.319805 4.57387 -0.232142 -0.32007 4.57387 -0.232037 2.91856 -7.94637 -3.23867 -27.3481 8.26479 1.18176 -54.5345 41.1343 -0.821347 15.2649 7.15187 -19.3264 9.91911 1.70159 -6.04971 -8.82781e-032 3.18055e-015 1.59028e-015 -3.18055e-015 6.36111e-015 1.59028e-015 25.204 14.6859 13.7165 51.2899 34.6644 3.63435 -9.45737 9.40395 8.65926 -4.32342 15.8357 12.6975 -4.77083e-015 1.59028e-015 7.95139e-016 -4.77083e-015 0 -0 -1.9149 -6.8063 -2.16167 
33.0298 95.8814 -27.8286 0.425806 -0.842295 0.266663 -0.159159 2.29094 -0.101346 4.66391 -1.53682 8.59982 -0.238761 6.33248 -10.9092 4.51144 -2.54791 -0.133886 -1.56905 -4.72235 2.84125 -3.39016 -2.6213 -0.48359 0.21174 10.572 0.504036 -5.6818 -9.7668 2.02777 2.13726 -7.26382 2.20292 -0.319948 4.57566 -0.196075 -0.319528 4.57566 -0.196076 2.85948 -7.98426 -3.25024 -27.3367 8.2989 1.2068 -54.6153 41.1977 -0.644691 15.2976 6.95598 -19.4436 9.89528 1.70108 -6.05856 6.36111e-015 3.18055e-015 -3.18055e-015 3.18055e-015 3.18056e-015 -3.18055e-015 25.2613 14.7619 13.8122 51.9644 34.6526 2.32869 -9.23154 8.98038 9.56465 -4.49442 16.0091 13.185 -4.77083e-015 -3.18055e-015 1.98785e-015 -4.77083e-015 -3.18056e-015 -3.97569e-016 -1.84924 -6.69847 -2.19597 
33.0335 95.8819 -27.8258 0.471437 -0.885341 0.302847 -0.159383 2.29094 -0.0936883 4.60174 -1.47446 8.66305 -0.21803 6.2675 -11.0325 4.53402 -2.49959 -0.125796 -1.57234 -4.75707 2.84826 -3.43814 -2.5941 -0.608825 0.19399 10.6233 0.503357 -5.66396 -9.80834 2.07884 2.14067 -7.27752 2.20521 -0.318595 4.58076 -0.179735 -0.317472 4.58077 -0.17991 2.71855 -8.03791 -3.2404 -27.1788 8.35269 1.25661 -54.749 41.2571 -0.517522 15.3047 6.74472 -19.5133 9.8812 1.6527 -5.95592 8.82781e-032 3.18055e-015 -1.59028e-015 -3.18055e-015 3.18056e-015 -1.59028e-015 25.1921 14.8655 14.0638 52.7838 34.5507 0.917444 -9.00293 8.61305 10.7134 -4.88626 16.0141 13.7924 1.59028e-015 0 2.78298e-015 1.59028e-015 -1.59028e-015 2.78299e-015 -1.75059 -6.66483 -2.23516 
33.025 95.8908 -27.8423 0.475896 -0.888621 0.409151 -0.159436 2.29094 -0.0904926 4.70158 -1.52526 8.21354 -0.384605 6.36396 -10.5645 4.16587 -2.78661 -0.104216 -1.69012 -4.4527 2.93073 -3.4316 -2.53676 -0.761634 0.165331 10.5431 0.516655 -5.6558 -9.77939 2.12139 2.15285 -7.2963 2.20477 -0.316055 4.58247 -0.176119 -0.314196 4.58248 -0.176177 2.44061 -8.25529 -3.21134 -26.8779 8.57157 1.36318 -54.8859 41.3543 -0.407627 15.3449 6.5544 -19.5832 9.84802 1.67851 -5.84218 -3.18055e-015 -3.18055e-015 -1.59028e-015 -3.18055e-015 -3.18056e-015 -0 25.1939 15.1356 14.3434 53.5253 34.063 -0.471012 -8.54285 8.18738 12.0137 -5.13317 16.0746 14.9235 -1.59028e-015 0 -1.19271e-015 -1.59028e-015 -1.59028e-015 -1.59028e-015 -1.55029 -6.45998 -2.30131 
33.0189 95.8915 -27.8716 0.458648 -0.891869 0.570154 -0.160099 2.29094 -0.0726398 4.78537 -1.63804 8.28023 -0.429135 6.50589 -10.7326 3.92577 -3.01367 -0.0899195 -1.77886 -4.27467 2.99111 -3.36794 -2.54422 -0.998991 0.073241 10.5558 0.578633 -5.65481 -9.7541 2.11853 2.16754 -7.34185 2.21207 -0.314697 4.58411 -0.139287 -0.31385 4.58412 -0.139237 2.24336 -8.50051 -3.24414 -26.6261 8.80953 1.44821 -54.9699 41.4989 -0.42979 15.4072 6.35488 -19.5665 9.76628 1.67634 -5.80666 2.64834e-031 3.18055e-015 -4.77083e-015 3.53113e-031 6.36111e-015 -3.18055e-015 25.4149 15.4675 14.5117 53.391 33.4183 -1.61815 -7.81036 8.11764 13.5101 -5.55645 16.8875 16.8892 1.10348e-032 1.59028e-015 -3.97569e-016 1.59028e-015 3.18056e-015 -0 -1.41876 -6.33851 -2.40395 
33.0613 95.8781 -27.8952 0.512394 -0.927058 0.762308 -0.164442 2.29465 -0.0585031 4.65141 -1.67614 8.39568 -0.305982 6.51894 -11.1708 4.19968 -2.81724 -0.103932 -1.71744 -4.47057 2.95921 -3.43351 -2.54527 -1.43753 -0.00670655 10.6852 0.594668 -5.59327 -9.84238 2.30682 2.18141 -7.40236 2.25349 -0.32693 4.58668 -0.110546 -0.326931 4.58669 -0.110546 1.92795 -8.68315 -3.27374 -26.2121 9.00389 1.49846 -55.1491 41.575 -0.371023 15.604 6.32457 -19.6691 9.67481 1.60509 -5.79627 -3.18055e-015 -3.18055e-015 -1.59028e-015 -3.18055e-015 0 -0 25.7862 15.7933 14.8205 52.8021 32.7661 -2.29465 -7.2981 8.47244 14.5028 -6.87223 19.4132 19.7775 -6.36111e-015 -7.95139e-016 1.19271e-015 -4.77083e-015 -7.95139e-016 3.57812e-015 -1.21753 -6.16193 -2.53642 
33.1019 95.8683 -27.8979 0.621215 -1.02593 0.739735 -0.193082 2.29974 -0.0227266 4.56053 -1.55858 9.21453 -0.256667 6.49615 -11.9902 4.25612 -2.7956 -0.108313 -1.68572 -4.4749 2.91594 -3.52929 -2.52788 -1.61422 -0.0708454 10.8452 0.600833 -5.54934 -9.96435 2.44141 2.18778 -7.41358 2.26729 -0.385339 4.59955 -0.0348453 -0.38568 4.59954 -0.0345421 1.62886 -8.84678 -3.25358 -25.8596 9.16706 1.61192 -55.2434 41.551 -0.193452 15.6895 6.12099 -19.9609 9.68244 1.63602 -5.76698 0 0 -0 -3.18055e-015 -3.18056e-015 3.18055e-015 26.0758 16.1931 15.4669 52.4535 32.6065 -3.62502 -8.58179 9.01497 16.7911 -7.58768 21.4028 21.1194 -5.17255e-034 5.96354e-016 4.96962e-017 2.93111e-032 9.93924e-016 -1.68967e-015 -1.00536 -5.72359 -2.60643 
